<mxfile host="app.diagrams.net" modified="2024-01-10T08:51:48.788Z" agent="Mozilla/5.0 (X11; Linux x86_64; rv:121.0) Gecko/20100101 Firefox/121.0" etag="4dVYgcwl2z2NBHLyIe7O" version="22.1.18" type="device">
  <diagram name="Page-1" id="aIUKr3eEjYN1EHlydvry">
    <mxGraphModel dx="1114" dy="551" grid="1" gridSize="10" guides="1" tooltips="1" connect="1" arrows="1" fold="1" page="1" pageScale="1" pageWidth="850" pageHeight="1100" math="0" shadow="0">
      <root>
        <mxCell id="0" />
        <mxCell id="1" parent="0" />
        <mxCell id="12L5whNXbeR2U8q5Mqpk-1" value="" style="rounded=0;whiteSpace=wrap;html=1;" vertex="1" parent="1">
          <mxGeometry x="140" y="260" width="600" height="20" as="geometry" />
        </mxCell>
        <mxCell id="12L5whNXbeR2U8q5Mqpk-2" value="entry point" style="rounded=0;whiteSpace=wrap;html=1;" vertex="1" parent="1">
          <mxGeometry x="140" y="260" width="160" height="20" as="geometry" />
        </mxCell>
        <mxCell id="12L5whNXbeR2U8q5Mqpk-3" value="EPC" style="rounded=0;whiteSpace=wrap;html=1;" vertex="1" parent="1">
          <mxGeometry x="300" y="260" width="160" height="20" as="geometry" />
        </mxCell>
        <mxCell id="12L5whNXbeR2U8q5Mqpk-4" value="" style="rounded=0;whiteSpace=wrap;html=1;" vertex="1" parent="1">
          <mxGeometry x="550" y="260" height="20" as="geometry" />
        </mxCell>
        <mxCell id="12L5whNXbeR2U8q5Mqpk-5" value="CSR Bits" style="rounded=0;whiteSpace=wrap;html=1;" vertex="1" parent="1">
          <mxGeometry x="600" y="260" width="140" height="20" as="geometry" />
        </mxCell>
        <mxCell id="12L5whNXbeR2U8q5Mqpk-7" value="" style="rounded=0;whiteSpace=wrap;html=1;" vertex="1" parent="1">
          <mxGeometry x="590" y="260" width="10" height="20" as="geometry" />
        </mxCell>
        <mxCell id="12L5whNXbeR2U8q5Mqpk-8" value="" style="rounded=0;whiteSpace=wrap;html=1;" vertex="1" parent="1">
          <mxGeometry x="580" y="260" width="10" height="20" as="geometry" />
        </mxCell>
        <mxCell id="12L5whNXbeR2U8q5Mqpk-12" value="Mode ID" style="rounded=0;whiteSpace=wrap;html=1;" vertex="1" parent="1">
          <mxGeometry x="460" y="260" width="110" height="20" as="geometry" />
        </mxCell>
        <mxCell id="12L5whNXbeR2U8q5Mqpk-13" value="0" style="text;html=1;strokeColor=none;fillColor=none;align=center;verticalAlign=middle;whiteSpace=wrap;rounded=0;" vertex="1" parent="1">
          <mxGeometry x="710" y="240" width="60" height="30" as="geometry" />
        </mxCell>
        <mxCell id="12L5whNXbeR2U8q5Mqpk-14" value="44" style="text;html=1;strokeColor=none;fillColor=none;align=center;verticalAlign=middle;whiteSpace=wrap;rounded=0;" vertex="1" parent="1">
          <mxGeometry x="584" y="240" width="60" height="30" as="geometry" />
        </mxCell>
        <mxCell id="12L5whNXbeR2U8q5Mqpk-15" value="47" style="text;html=1;strokeColor=none;fillColor=none;align=center;verticalAlign=middle;whiteSpace=wrap;rounded=0;" vertex="1" parent="1">
          <mxGeometry x="545" y="240" width="60" height="30" as="geometry" />
        </mxCell>
        <mxCell id="12L5whNXbeR2U8q5Mqpk-16" value="&lt;div&gt;64&lt;/div&gt;" style="text;html=1;strokeColor=none;fillColor=none;align=center;verticalAlign=middle;whiteSpace=wrap;rounded=0;" vertex="1" parent="1">
          <mxGeometry x="419" y="240" width="60" height="30" as="geometry" />
        </mxCell>
        <mxCell id="12L5whNXbeR2U8q5Mqpk-17" value="127" style="text;html=1;strokeColor=none;fillColor=none;align=center;verticalAlign=middle;whiteSpace=wrap;rounded=0;" vertex="1" parent="1">
          <mxGeometry x="280" y="240" width="60" height="30" as="geometry" />
        </mxCell>
        <mxCell id="12L5whNXbeR2U8q5Mqpk-20" value="48" style="text;html=1;strokeColor=none;fillColor=none;align=center;verticalAlign=middle;whiteSpace=wrap;rounded=0;" vertex="1" parent="1">
          <mxGeometry x="527" y="240" width="60" height="30" as="geometry" />
        </mxCell>
        <mxCell id="12L5whNXbeR2U8q5Mqpk-21" value="63" style="text;html=1;strokeColor=none;fillColor=none;align=center;verticalAlign=middle;whiteSpace=wrap;rounded=0;" vertex="1" parent="1">
          <mxGeometry x="440" y="240" width="60" height="30" as="geometry" />
        </mxCell>
        <mxCell id="12L5whNXbeR2U8q5Mqpk-22" value="128" style="text;html=1;strokeColor=none;fillColor=none;align=center;verticalAlign=middle;whiteSpace=wrap;rounded=0;" vertex="1" parent="1">
          <mxGeometry x="250" y="240" width="60" height="30" as="geometry" />
        </mxCell>
        <mxCell id="12L5whNXbeR2U8q5Mqpk-23" value="191" style="text;html=1;strokeColor=none;fillColor=none;align=center;verticalAlign=middle;whiteSpace=wrap;rounded=0;" vertex="1" parent="1">
          <mxGeometry x="130" y="240" width="60" height="30" as="geometry" />
        </mxCell>
        <mxCell id="12L5whNXbeR2U8q5Mqpk-24" value="64" style="text;html=1;strokeColor=none;fillColor=none;align=center;verticalAlign=middle;whiteSpace=wrap;rounded=0;" vertex="1" parent="1">
          <mxGeometry x="180" y="280" width="60" height="30" as="geometry" />
        </mxCell>
        <mxCell id="12L5whNXbeR2U8q5Mqpk-25" value="64" style="text;html=1;strokeColor=none;fillColor=none;align=center;verticalAlign=middle;whiteSpace=wrap;rounded=0;" vertex="1" parent="1">
          <mxGeometry x="350" y="280" width="60" height="30" as="geometry" />
        </mxCell>
        <mxCell id="12L5whNXbeR2U8q5Mqpk-26" value="16" style="text;html=1;strokeColor=none;fillColor=none;align=center;verticalAlign=middle;whiteSpace=wrap;rounded=0;" vertex="1" parent="1">
          <mxGeometry x="485" y="280" width="60" height="30" as="geometry" />
        </mxCell>
        <mxCell id="12L5whNXbeR2U8q5Mqpk-27" value="45" style="text;html=1;strokeColor=none;fillColor=none;align=center;verticalAlign=middle;whiteSpace=wrap;rounded=0;" vertex="1" parent="1">
          <mxGeometry x="640" y="280" width="60" height="30" as="geometry" />
        </mxCell>
        <mxCell id="12L5whNXbeR2U8q5Mqpk-28" value="3" style="text;html=1;strokeColor=none;fillColor=none;align=center;verticalAlign=middle;whiteSpace=wrap;rounded=0;" vertex="1" parent="1">
          <mxGeometry x="555" y="280" width="60" height="30" as="geometry" />
        </mxCell>
        <mxCell id="12L5whNXbeR2U8q5Mqpk-29" value="45" style="text;html=1;strokeColor=none;fillColor=none;align=center;verticalAlign=middle;whiteSpace=wrap;rounded=0;" vertex="1" parent="1">
          <mxGeometry x="562" y="240" width="60" height="30" as="geometry" />
        </mxCell>
      </root>
    </mxGraphModel>
  </diagram>
</mxfile>
